<svg width="783" height="452" viewBox="0 0 783 452" fill="none" xmlns="http://www.w3.org/2000/svg">
<path d="M106.449 361.812C120.214 361.812 131.372 350.653 131.372 336.889C131.372 323.124 120.214 311.965 106.449 311.965C92.6843 311.965 81.5258 323.124 81.5258 336.889C81.5258 350.653 92.6843 361.812 106.449 361.812Z" fill="#5AAF94"/>
<path d="M67.1582 409.421C88.8573 409.421 106.448 391.83 106.448 370.131C106.448 348.432 88.8573 330.842 67.1582 330.842C45.4591 330.842 27.8685 348.432 27.8685 370.131C27.8685 391.83 45.4591 409.421 67.1582 409.421Z" fill="#5AAF94"/>
<path d="M0 419.618C0 385.051 28.0214 357.031 62.5886 357.031C97.1534 357.031 125.177 385.051 125.177 419.618" fill="#A1DDA0"/>
<path d="M104.501 405.428C123.428 405.428 138.771 390.085 138.771 371.159C138.771 352.232 123.428 336.889 104.501 336.889C85.5745 336.889 70.2313 352.232 70.2313 371.159C70.2313 390.085 85.5745 405.428 104.501 405.428Z" fill="#A1DDA0"/>
<path d="M719.946 312.077C737.112 312.077 751.028 298.161 751.028 280.994C751.028 263.828 737.112 249.912 719.946 249.912C702.779 249.912 688.863 263.828 688.863 280.994C688.863 298.161 702.779 312.077 719.946 312.077Z" fill="#5AAF94"/>
<path d="M670.944 371.454C698.007 371.454 719.946 349.515 719.946 322.453C719.946 295.39 698.007 273.451 670.944 273.451C643.882 273.451 621.943 295.39 621.943 322.453C621.943 349.515 643.882 371.454 670.944 371.454Z" fill="#5AAF94"/>
<path d="M626.891 384.17C626.891 341.06 661.836 306.115 704.946 306.115C748.055 306.115 783 341.06 783 384.17" fill="#A1DDA0"/>
<path d="M717.516 366.473C741.121 366.473 760.256 347.338 760.256 323.734C760.256 300.13 741.121 280.994 717.516 280.994C693.912 280.994 674.777 300.13 674.777 323.734C674.777 347.338 693.912 366.473 717.516 366.473Z" fill="#A1DDA0"/>
<path d="M342.461 149.883H65.3482V426.996H342.461V149.883Z" fill="#F7B154"/>
<path d="M96.1385 287.255V290.559V415.154H251.58H259.564V287.255H96.1385Z" fill="#555555"/>
<path d="M254.827 327.52H103.244V329.888H254.827V327.52Z" fill="#4B4B4B"/>
<path d="M254.827 299.65H103.244V302.018H254.827V299.65Z" fill="#4B4B4B"/>
<path d="M254.827 360.679H103.244V363.047H254.827V360.679Z" fill="#4B4B4B"/>
<path d="M254.827 391.469H103.244V393.837H254.827V391.469Z" fill="#4B4B4B"/>
<path d="M444.306 71.723H48.7688V232.78H444.306V71.723Z" fill="#D88B25"/>
<path d="M406.41 415.154H65.3482V426.996H406.41V415.154Z" fill="#454545"/>
<path d="M341.519 70.7767H330.709V232.778H341.519V70.7767Z" fill="#D17A24"/>
<path d="M375.937 70.7767H365.129V232.778H375.937V70.7767Z" fill="#D17A24"/>
<path d="M410.358 70.7767H399.551V232.778H410.358V70.7767Z" fill="#D17A24"/>
<path d="M307.095 70.7767H296.288V232.778H307.095V70.7767Z" fill="#D17A24"/>
<path d="M203.833 70.7767H193.024V232.778H203.833V70.7767Z" fill="#D17A24"/>
<path d="M238.255 70.7767H227.448V232.778H238.255V70.7767Z" fill="#D17A24"/>
<path d="M272.681 70.7767H261.872V232.778H272.681V70.7767Z" fill="#D17A24"/>
<path d="M169.413 70.7767H158.606V232.778H169.413V70.7767Z" fill="#D17A24"/>
<path d="M66.1499 70.7767H55.3407V232.778H66.1499V70.7767Z" fill="#D17A24"/>
<path d="M100.57 70.7767H89.7626V232.778H100.57V70.7767Z" fill="#D17A24"/>
<path d="M134.99 70.7767H124.182V232.778H134.99V70.7767Z" fill="#D17A24"/>
<path d="M160.088 256.465H141.14V268.307H160.088V256.465Z" fill="#C98535"/>
<path d="M379.172 72.275L283.249 167.53V427.548H475.097V72.5069L379.172 72.275Z" fill="#2C0222" fill-opacity="0.2"/>
<path d="M655.102 185.427V441.207H314.039V185.427L484.589 14.8793L655.102 185.427Z" fill="#FCC165"/>
<path d="M655.102 185.619V216.165L484.589 45.4984L314.039 216.201V185.619L484.589 14.8793L655.102 185.619Z" fill="#1E0417" fill-opacity="0.19"/>
<path d="M681.155 196.279L673.525 203.871L665.894 211.464L484.571 31.0742L303.247 211.464L295.617 203.871L287.986 196.279L484.571 0.668365L681.155 196.279Z" fill="#DCE1E5"/>
<path d="M475.097 93.0394H456.149V104.882H475.097V93.0394Z" fill="#D39542"/>
<path d="M484.571 104.882H465.623V116.724H484.571V104.882Z" fill="#D39542"/>
<path d="M624.311 201.99H602.995V213.832H624.311V201.99Z" fill="#D39542"/>
<path d="M475.097 237.517H456.149V249.36H475.097V237.517Z" fill="#D39542"/>
<path d="M655.102 429.365H314.039V441.207H655.102V429.365Z" fill="#454545"/>
<path d="M291.685 443.251C301.62 443.251 309.674 435.197 309.674 425.261C309.674 415.326 301.62 407.272 291.685 407.272C281.75 407.272 273.696 415.326 273.696 425.261C273.696 435.197 281.75 443.251 291.685 443.251Z" fill="#5AAF94"/>
<path d="M320.046 448.547C335.711 448.547 348.41 435.848 348.41 420.183C348.41 404.519 335.711 391.82 320.046 391.82C304.381 391.82 291.683 404.519 291.683 420.183C291.683 435.848 304.381 448.547 320.046 448.547Z" fill="#5AAF94"/>
<path d="M377.497 451.233H287.171C287.171 426.267 307.365 406.025 332.334 406.025C357.3 406.025 377.497 426.267 377.497 451.233Z" fill="#A1DDA0"/>
<path d="M392.24 440.961C392.24 444.645 391.462 448.111 389.983 451.233H344.998C343.526 448.111 342.741 444.645 342.741 440.961C342.741 427.305 353.837 416.215 367.49 416.215C381.145 416.215 392.24 427.308 392.24 440.961Z" fill="#A1DDA0"/>
<path d="M127.74 412.77H123.793C119.704 412.77 116.356 409.42 116.356 405.333V375.986C116.356 375.698 116.588 375.467 116.876 375.467H134.657C134.943 375.467 135.176 375.698 135.176 375.986V405.333C135.174 409.42 131.827 412.77 127.74 412.77Z" fill="#1A2120"/>
<path d="M237.221 412.77H233.28C229.189 412.77 225.842 409.42 225.842 405.333V375.985C225.842 375.698 226.075 375.467 226.359 375.467H244.14C244.426 375.467 244.66 375.698 244.66 375.985V405.333C244.662 409.42 241.312 412.77 237.221 412.77Z" fill="#1A2120"/>
<path d="M241.527 400.727L240.479 404.176C239.87 406.172 238.033 407.528 235.954 407.528H218.319C217.172 407.528 216.05 407.128 215.201 406.358C214.279 405.518 212.566 404.087 209.673 404.422C177.821 408.117 151.337 404.422 151.337 404.422C148.428 404.521 146.728 405.52 145.809 406.358C144.962 407.128 143.839 407.528 142.692 407.528H125.058C122.979 407.528 121.142 406.172 120.534 404.176L119.481 400.727H241.527Z" fill="#3B3847"/>
<path d="M245.199 378.011C245.652 373.936 245.932 370.46 245.932 368.564C245.932 362.35 243.397 361.657 239.024 357.974C234.648 354.29 230.915 350.379 230.915 350.379C230.915 350.379 225.212 338.409 217.952 331.497C210.698 324.592 182.159 325.741 182.159 325.741H178.858C178.858 325.741 150.32 324.592 143.064 331.497C135.806 338.409 130.103 350.379 130.103 350.379C130.103 350.379 126.367 354.29 121.994 357.974C117.621 361.657 115.086 362.35 115.086 368.564C115.086 370.371 115.339 373.619 115.755 377.448C133.717 380.924 178.584 386.937 245.199 378.011Z" fill="#191A1C" stroke="#191A1C" stroke-miterlimit="10"/>
<path d="M115.755 377.448C116.511 384.418 117.802 393.31 119.089 398.977C119.676 401.589 121.992 403.447 124.666 403.447H141.466C142.822 403.447 144.162 403 145.163 402.089C145.768 401.537 146.962 400.991 149.28 400.83C149.621 400.804 149.96 400.808 150.297 400.848C153.191 401.149 169.335 402.801 175.716 402.42C175.825 402.416 175.935 402.41 176.047 402.41H184.963C185.073 402.41 185.182 402.416 185.294 402.42C191.677 402.801 207.815 401.149 210.71 400.848C211.051 400.81 211.39 400.806 211.727 400.83C214.048 400.991 215.238 401.535 215.843 402.089C216.846 403.002 218.19 403.447 219.544 403.447H236.344C239.022 403.447 241.33 401.591 241.921 398.977C243.175 393.46 244.434 384.891 245.195 378.011C178.584 386.937 133.717 380.924 115.755 377.448Z" fill="#191A1C" stroke="#191A1C" stroke-miterlimit="10"/>
<path d="M132.736 346.118C132.736 346.118 132.306 347.239 128.507 347.584C124.707 347.933 117.8 346.467 117.8 346.467C117.8 346.467 116.765 349.573 121.773 350.178C126.782 350.781 131.002 349.352 131.002 349.352L132.736 346.118Z" fill="#191A1C"/>
<path d="M117.8 346.465C117.8 346.465 117.107 343.526 125.226 342.748C125.226 342.748 129.891 342.403 130.064 343.526C130.234 344.652 129.024 347.531 129.024 347.531C129.024 347.531 123.76 348.016 117.8 346.465Z" fill="#C4C4C4"/>
<path d="M228.282 346.118C228.282 346.118 228.712 347.239 232.511 347.584C236.311 347.933 243.214 346.467 243.214 346.467C243.214 346.467 244.251 349.573 239.245 350.178C234.238 350.781 230.016 349.352 230.016 349.352L228.282 346.118Z" fill="#191A1C"/>
<path d="M243.214 346.465C243.214 346.465 243.908 343.526 235.792 342.748C235.792 342.748 231.128 342.403 230.958 343.526C230.783 344.652 232.001 347.531 232.001 347.531C232.001 347.531 237.257 348.016 243.214 346.465Z" fill="#C4C4C4"/>
<path d="M159.078 367.835C159.395 370.826 160.112 375.514 161.673 379.952C161.902 379.988 162.134 380.019 162.371 380.047H166.137C164.98 375.54 164.673 370.858 164.613 367.835H159.078Z" fill="#4E4E4E"/>
<path d="M154.563 367.835C155.123 370.594 156.195 374.925 158.008 379.062C159.072 379.442 160.284 379.749 161.673 379.956C160.112 375.514 159.393 370.824 159.078 367.835H154.563Z" fill="#6B6B6B"/>
<path d="M153.519 367.835C153.519 367.835 150.726 367.894 151.242 371.423C151.65 374.214 153.349 377.383 158.008 379.058C156.197 374.919 155.123 370.594 154.563 367.835H153.519Z" fill="#4E4E4E"/>
<path d="M169.775 367.835H164.613C164.672 370.858 164.98 375.54 166.137 380.047H170.419C169.597 375.511 169.619 370.858 169.775 367.835Z" fill="#6B6B6B"/>
<path d="M174.703 367.835H169.775C169.619 370.858 169.599 375.511 170.419 380.047H174.473C173.974 375.473 174.333 370.844 174.703 367.835Z" fill="#4E4E4E"/>
<path d="M175.094 367.835H174.703C174.333 370.846 173.974 375.473 174.471 380.047H175.586C176.974 380.047 178.091 378.926 178.091 377.544V370.832C178.091 369.177 176.751 367.835 175.094 367.835Z" fill="#6B6B6B"/>
<path d="M201.938 367.835C201.617 370.826 200.9 375.514 199.341 379.952C199.112 379.988 198.88 380.019 198.643 380.047H194.879C196.032 375.54 196.343 370.858 196.403 367.835H201.938Z" fill="#4E4E4E"/>
<path d="M206.453 367.835C205.893 370.594 204.821 374.925 203.004 379.062C201.944 379.442 200.732 379.749 199.341 379.956C200.9 375.514 201.617 370.824 201.938 367.835H206.453Z" fill="#6B6B6B"/>
<path d="M207.497 367.835C207.497 367.835 210.294 367.894 209.774 371.423C209.366 374.214 207.663 377.383 203.004 379.058C204.819 374.919 205.893 370.594 206.453 367.835H207.497Z" fill="#4E4E4E"/>
<path d="M191.243 367.835H196.405C196.345 370.858 196.034 375.54 194.881 380.047H190.599C191.419 375.511 191.397 370.858 191.243 367.835Z" fill="#6B6B6B"/>
<path d="M186.313 367.835H191.241C191.397 370.858 191.417 375.511 190.597 380.047H186.543C187.038 375.473 186.683 370.844 186.313 367.835Z" fill="#4E4E4E"/>
<path d="M185.922 367.835H186.313C186.683 370.846 187.038 375.473 186.545 380.047H185.43C184.042 380.047 182.925 378.926 182.925 377.544V370.832C182.925 369.177 184.269 367.835 185.922 367.835Z" fill="#6B6B6B"/>
<path d="M122.429 387.877V393.67C122.429 395.158 123.545 396.412 125.028 396.577L141.021 398.396C142.548 398.569 143.947 397.533 144.229 396.021L145.496 389.232C145.827 387.482 144.532 385.855 142.755 385.766L125.497 384.95C123.826 384.873 122.429 386.201 122.429 387.877Z" fill="#4A4A4A"/>
<path d="M238.587 387.877V393.67C238.587 395.158 237.469 396.412 235.991 396.577L219.997 398.396C218.47 398.569 217.071 397.533 216.785 396.021L215.518 389.232C215.191 387.482 216.486 385.855 218.259 385.766L235.52 384.95C237.19 384.873 238.587 386.201 238.587 387.877Z" fill="#4A4A4A"/>
<path d="M210.777 401.054L209.37 394.317C208.406 391.566 205.805 389.723 202.888 389.723L183.668 390.204H177.348L158.128 389.723C155.207 389.723 152.61 391.568 151.643 394.317L150.239 401.054C150.239 401.054 174.1 404.48 210.777 401.054Z" fill="#4A4A4A"/>
<path d="M192.615 395.272H168.401C168.116 395.272 167.879 395.04 167.879 394.75V388.109C167.879 387.823 168.116 387.591 168.401 387.591H192.615C192.901 387.591 193.133 387.823 193.133 388.109V394.75C193.133 395.04 192.899 395.272 192.615 395.272Z" fill="#C0C0C0"/>
<path d="M180.507 367.163C182.375 367.163 183.889 366.613 183.889 365.935C183.889 365.257 182.375 364.707 180.507 364.707C178.639 364.707 177.125 365.257 177.125 365.935C177.125 366.613 178.639 367.163 180.507 367.163Z" fill="#595959"/>
<path d="M126.335 354.202C126.335 354.202 124.812 361.136 127.056 363.73L140.524 367.835C140.524 367.835 143.417 364.762 151.294 363.73C154.547 363.3 160.231 363.05 165.78 362.902C149.433 358.797 139.314 352.881 133.459 348.301C131.764 349.09 129.342 350.743 126.335 354.202Z" fill="#2B2B2B"/>
<path d="M234.681 354.202C231.674 350.743 229.252 349.09 227.557 348.301C221.706 352.881 211.587 358.797 195.24 362.902C200.773 363.05 206.457 363.3 209.722 363.73C217.601 364.766 220.492 367.835 220.492 367.835L233.96 363.73C236.204 361.14 234.681 354.202 234.681 354.202Z" fill="#2B2B2B"/>
<path d="M224.788 347.6H179.721H174.824H136.232C136.232 347.6 135.25 347.472 133.463 348.299C139.318 352.879 149.437 358.799 165.784 362.9C172.25 362.731 178.538 362.699 180.596 362.693C182.633 362.701 188.839 362.733 195.244 362.9C211.591 358.795 221.71 352.879 227.561 348.299C225.77 347.472 224.788 347.6 224.788 347.6Z" fill="#424242"/>
<path d="M145.935 373.613L141.647 366.637C141.486 366.38 141.235 366.189 140.944 366.105L126.625 362.043C124.829 361.533 123.04 362.607 122.644 364.429C122.281 366.093 122.272 368.406 123.424 371.28C124.061 372.882 125.559 373.977 127.283 374.113C131.66 374.45 140.548 375.134 144.802 375.461C145.796 375.536 146.454 374.456 145.935 373.613Z" fill="#F4F4F4"/>
<path d="M128.324 371.425C130.305 371.425 131.912 369.819 131.912 367.837C131.912 365.855 130.305 364.248 128.324 364.248C126.342 364.248 124.735 365.855 124.735 367.837C124.735 369.819 126.342 371.425 128.324 371.425Z" fill="#C5C5C5"/>
<path d="M136.114 371.423C137.561 371.423 138.735 370.25 138.735 368.802C138.735 367.355 137.561 366.181 136.114 366.181C134.666 366.181 133.493 367.355 133.493 368.802C133.493 370.25 134.666 371.423 136.114 371.423Z" fill="#C5C5C5"/>
<path d="M215.083 373.613L219.369 366.637C219.528 366.38 219.777 366.189 220.076 366.105L234.393 362.043C236.189 361.533 237.978 362.607 238.372 364.429C238.735 366.093 238.743 368.406 237.594 371.28C236.949 372.882 235.452 373.977 233.731 374.113C229.35 374.45 220.468 375.134 216.21 375.461C215.217 375.536 214.558 374.456 215.083 373.613Z" fill="#F4F4F4"/>
<path d="M232.693 371.425C234.675 371.425 236.281 369.819 236.281 367.837C236.281 365.855 234.675 364.248 232.693 364.248C230.711 364.248 229.104 365.855 229.104 367.837C229.104 369.819 230.711 371.425 232.693 371.425Z" fill="#C5C5C5"/>
<path d="M224.906 371.423C226.354 371.423 227.527 370.25 227.527 368.802C227.527 367.355 226.354 366.181 224.906 366.181C223.459 366.181 222.285 367.355 222.285 368.802C222.285 370.25 223.459 371.423 224.906 371.423Z" fill="#C5C5C5"/>
<path d="M178.513 328.157C178.513 328.157 153.117 327.467 147.575 331.785C142.037 336.105 136.651 347.6 136.651 347.6H159.641L179.084 328.157H178.513Z" fill="#747474"/>
<path d="M182.499 328.157H179.082L159.639 347.6H167.38L186.866 328.118C184.224 328.114 182.499 328.157 182.499 328.157Z" fill="#929292"/>
<path d="M201.552 328.774C199.155 328.536 196.664 328.378 194.304 328.279L174.981 347.602H182.726L201.552 328.774Z" fill="#929292"/>
<path d="M186.866 328.12L167.384 347.602H174.979L194.302 328.279C191.517 328.165 188.916 328.128 186.866 328.12Z" fill="#747474"/>
<path d="M224.36 347.6C224.36 347.6 218.975 336.105 213.437 331.785C211.403 330.203 206.695 329.29 201.552 328.774L182.724 347.602L224.36 347.6Z" fill="#747474"/>
<path d="M446.043 278.333H352.567C350.91 278.333 349.567 279.677 349.567 281.333V370.073C349.567 371.73 350.91 373.073 352.567 373.073H446.043C447.7 373.073 449.043 371.73 449.043 370.073V281.333C449.043 279.677 447.7 278.333 446.043 278.333Z" fill="#D39E56"/>
<path d="M447.043 278.333H356.304C355.199 278.333 354.304 279.229 354.304 280.333V366.336C354.304 367.441 355.199 368.336 356.304 368.336H447.043C448.148 368.336 449.043 367.441 449.043 366.336V280.333C449.043 279.229 448.148 278.333 447.043 278.333Z" fill="#FFEDE1"/>
<rect x="354.304" y="306.755" width="94.7395" height="2.36849" fill="#E39B65"/>
<path d="M437.65 295.034H439.122L438.907 295.814H436.991C436.732 295.814 436.628 295.691 436.628 295.389V292.55H438.914V293.29H437.65V293.763H438.639L438.637 294.429H437.65V295.034" fill="#191A1C"/>
<path d="M426.141 294.593C426.142 294.881 425.992 295.155 425.64 295.155C425.285 295.155 425.128 294.899 425.126 294.593V292.551H424.113L424.112 294.591C424.116 295.434 424.697 295.893 425.621 295.893C426.57 295.893 427.16 295.399 427.157 294.481V292.55C427.157 292.55 426.579 292.549 426.518 292.549C426.236 292.549 426.139 292.72 426.139 292.978V293.169L426.141 294.593Z" fill="#191A1C"/>
<path d="M422.794 294.162C422.791 293.543 422.461 293.29 421.881 293.29H421.629L421.626 295.08H421.891C422.554 295.076 422.796 294.725 422.794 294.162ZM423.808 294.152C423.812 295.175 423.089 295.814 422.032 295.814H420.621V293C420.621 292.73 420.748 292.555 421.087 292.555H422.176C422.922 292.555 423.802 292.923 423.808 294.152Z" fill="#191A1C"/>
<path d="M432.404 294.704L432.019 293.441L431.65 294.704H432.404ZM427.582 292.978C427.582 292.708 427.739 292.549 428.043 292.549C428.104 292.549 429.31 292.544 429.31 292.544C429.997 292.544 430.412 292.872 430.413 293.347C430.415 293.543 430.318 293.778 430.155 293.953L429.796 294.338L430.403 295.518L431.286 292.932C431.286 292.932 431.353 292.555 431.805 292.555H432.671L433.829 295.814H432.742L432.606 295.362H431.46L431.328 295.814H430.556H430.557H429.481L428.759 294.338C428.759 294.338 428.978 294.079 429.172 293.859C429.284 293.73 429.359 293.634 429.359 293.522C429.358 293.37 429.231 293.271 429.037 293.271H428.59V295.814H427.585L427.582 292.978Z" fill="#191A1C"/>
<path d="M439.469 295.814H441.554L441.778 295.025H440.51L440.509 292.555C440.509 292.555 440.01 292.549 439.949 292.549C439.622 292.549 439.468 292.719 439.468 292.988L439.469 295.814Z" fill="#191A1C"/>
<path d="M441.999 295.814H444.084L444.306 295.025H443.041L443.039 292.555C443.039 292.555 442.54 292.549 442.479 292.549C442.152 292.549 441.998 292.719 441.998 292.988L441.999 295.814Z" fill="#191A1C"/>
<path d="M435.395 295.814H436.216L436.214 295.047H435.632C435.377 295.047 435.193 295.039 434.986 294.831C434.846 294.691 434.739 294.489 434.737 294.17C434.736 293.939 434.806 293.713 434.957 293.538C435.119 293.353 435.309 293.302 435.582 293.302H436.22L436.216 292.555H435.342C435.129 292.555 434.805 292.579 434.458 292.759C433.921 293.047 433.681 293.586 433.684 294.163C433.687 294.716 433.917 295.114 434.131 295.338C434.564 295.802 435.135 295.814 435.395 295.814Z" fill="#191A1C"/>
<path d="M598.626 275.965H522.098C520.993 275.965 520.098 276.86 520.098 277.965V406.6C520.098 407.705 520.993 408.6 522.098 408.6H598.626C599.731 408.6 600.626 407.705 600.626 406.6V277.965C600.626 276.86 599.731 275.965 598.626 275.965Z" fill="#D39E56"/>
<path d="M600.995 275.965H526.835C525.73 275.965 524.835 276.86 524.835 277.965V401.863C524.835 402.968 525.73 403.863 526.835 403.863H600.995C602.1 403.863 602.995 402.968 602.995 401.863V277.965C602.995 276.86 602.1 275.965 600.995 275.965Z" fill="#FFEDE1"/>
<rect x="524.835" y="304.387" width="78.1601" height="2.36849" fill="#E39B65"/>
<path d="M572.654 299.771H574.126L573.911 300.551H571.995C571.736 300.551 571.632 300.428 571.632 300.126V297.287H573.918V298.027H572.654V298.5H573.643L573.641 299.166H572.654V299.771" fill="#191A1C"/>
<path d="M561.145 299.33C561.146 299.618 560.996 299.892 560.644 299.892C560.289 299.892 560.132 299.636 560.13 299.33V297.288H559.116L559.115 299.328C559.119 300.171 559.701 300.63 560.625 300.63C561.574 300.63 562.164 300.136 562.16 299.217V297.287C562.16 297.287 561.583 297.286 561.522 297.286C561.24 297.286 561.143 297.456 561.143 297.715V297.906L561.145 299.33Z" fill="#191A1C"/>
<path d="M557.798 298.899C557.795 298.28 557.465 298.027 556.885 298.027H556.633L556.63 299.817H556.894C557.557 299.813 557.8 299.462 557.798 298.899ZM558.812 298.889C558.816 299.912 558.093 300.551 557.036 300.551H555.625V297.737C555.625 297.467 555.752 297.292 556.091 297.292H557.18C557.925 297.292 558.806 297.66 558.812 298.889Z" fill="#191A1C"/>
<path d="M567.407 299.441L567.022 298.178L566.654 299.441H567.407ZM562.586 297.715C562.586 297.445 562.743 297.286 563.047 297.286C563.108 297.286 564.313 297.281 564.313 297.281C565.001 297.281 565.415 297.609 565.417 298.084C565.419 298.28 565.321 298.515 565.159 298.69L564.8 299.075L565.407 300.255L566.289 297.669C566.289 297.669 566.357 297.292 566.808 297.292H567.675L568.833 300.551H567.746L567.609 300.099H566.464L566.332 300.551H565.56H565.561H564.485L563.762 299.075C563.762 299.075 563.982 298.816 564.176 298.596C564.288 298.467 564.363 298.371 564.363 298.259C564.362 298.107 564.235 298.008 564.04 298.008H563.594V300.551H562.589L562.586 297.715Z" fill="#191A1C"/>
<path d="M574.473 300.551H576.558L576.781 299.762H575.514L575.513 297.292C575.513 297.292 575.014 297.286 574.952 297.286C574.625 297.286 574.472 297.456 574.472 297.725L574.473 300.551Z" fill="#191A1C"/>
<path d="M577.003 300.551H579.088L579.31 299.762H578.044L578.043 297.292C578.043 297.292 577.544 297.286 577.483 297.286C577.156 297.286 577.002 297.456 577.002 297.725L577.003 300.551Z" fill="#191A1C"/>
<path d="M570.398 300.551H571.22L571.218 299.784H570.635C570.381 299.784 570.196 299.776 569.99 299.568C569.85 299.428 569.743 299.226 569.741 298.907C569.74 298.676 569.809 298.45 569.961 298.275C570.123 298.09 570.313 298.039 570.586 298.039H571.224L571.22 297.292H570.346C570.132 297.292 569.809 297.315 569.461 297.496C568.925 297.784 568.684 298.323 568.687 298.9C568.69 299.453 568.921 299.851 569.134 300.075C569.567 300.539 570.139 300.551 570.398 300.551Z" fill="#191A1C"/>
<rect x="74.8222" y="91.2229" width="59.2122" height="120.793" fill="#DDDDDD"/>
<rect x="77.1907" y="93.5914" width="16.5794" height="21.3164" fill="#6B95FF"/>
<rect x="77.1907" y="117.276" width="16.5794" height="21.3164" fill="#6B95FF"/>
<rect x="77.1907" y="140.961" width="16.5794" height="21.3164" fill="#6B95FF"/>
<rect x="77.1907" y="164.646" width="16.5794" height="21.3164" fill="#6B95FF"/>
<rect x="77.1907" y="188.331" width="16.5794" height="21.3164" fill="#6B95FF"/>
<rect x="96.1385" y="93.5914" width="16.5794" height="21.3164" fill="#6B95FF"/>
<rect x="96.1385" y="117.276" width="16.5794" height="21.3164" fill="#6B95FF"/>
<rect x="96.1385" y="140.961" width="16.5794" height="21.3164" fill="#6B95FF"/>
<rect x="96.1385" y="164.646" width="16.5794" height="21.3164" fill="#6B95FF"/>
<rect x="96.1385" y="188.331" width="16.5794" height="21.3164" fill="#6B95FF"/>
<rect x="115.086" y="93.5914" width="16.5794" height="21.3164" fill="#6B95FF"/>
<rect x="115.086" y="117.276" width="16.5794" height="21.3164" fill="#6B95FF"/>
<rect x="115.086" y="140.961" width="16.5794" height="21.3164" fill="#6B95FF"/>
<rect x="115.086" y="164.646" width="16.5794" height="21.3164" fill="#6B95FF"/>
<rect x="115.086" y="188.331" width="16.5794" height="21.3164" fill="#6B95FF"/>
<rect x="136.403" y="91.2229" width="59.2122" height="120.793" fill="#DDDDDD"/>
<rect x="138.771" y="93.5914" width="16.5794" height="21.3164" fill="#6B95FF"/>
<rect x="138.771" y="117.276" width="16.5794" height="21.3164" fill="#6B95FF"/>
<rect x="138.771" y="140.961" width="16.5794" height="21.3164" fill="#6B95FF"/>
<rect x="138.771" y="164.646" width="16.5794" height="21.3164" fill="#6B95FF"/>
<rect x="138.771" y="188.331" width="16.5794" height="21.3164" fill="#6B95FF"/>
<rect x="157.719" y="93.5914" width="16.5794" height="21.3164" fill="#6B95FF"/>
<rect x="157.719" y="117.276" width="16.5794" height="21.3164" fill="#6B95FF"/>
<rect x="157.719" y="140.961" width="16.5794" height="21.3164" fill="#6B95FF"/>
<rect x="157.719" y="164.646" width="16.5794" height="21.3164" fill="#6B95FF"/>
<rect x="157.719" y="188.331" width="16.5794" height="21.3164" fill="#6B95FF"/>
<rect x="176.667" y="93.5914" width="16.5794" height="21.3164" fill="#6B95FF"/>
<rect x="176.667" y="117.276" width="16.5794" height="21.3164" fill="#6B95FF"/>
<rect x="176.667" y="140.961" width="16.5794" height="21.3164" fill="#6B95FF"/>
<rect x="176.667" y="164.646" width="16.5794" height="21.3164" fill="#6B95FF"/>
<rect x="176.667" y="188.331" width="16.5794" height="21.3164" fill="#6B95FF"/>
<rect x="197.984" y="91.2229" width="59.2122" height="120.793" fill="#DDDDDD"/>
<rect x="200.352" y="93.5914" width="16.5794" height="21.3164" fill="#6B95FF"/>
<rect x="200.352" y="117.276" width="16.5794" height="21.3164" fill="#6B95FF"/>
<rect x="200.352" y="140.961" width="16.5794" height="21.3164" fill="#6B95FF"/>
<rect x="200.352" y="164.646" width="16.5794" height="21.3164" fill="#6B95FF"/>
<rect x="200.352" y="188.331" width="16.5794" height="21.3164" fill="#6B95FF"/>
<rect x="219.3" y="93.5914" width="16.5794" height="21.3164" fill="#6B95FF"/>
<rect x="219.3" y="117.276" width="16.5794" height="21.3164" fill="#6B95FF"/>
<rect x="219.3" y="140.961" width="16.5794" height="21.3164" fill="#6B95FF"/>
<rect x="219.3" y="164.646" width="16.5794" height="21.3164" fill="#6B95FF"/>
<rect x="219.3" y="188.331" width="16.5794" height="21.3164" fill="#6B95FF"/>
<rect x="238.248" y="93.5914" width="16.5794" height="21.3164" fill="#6B95FF"/>
<rect x="238.248" y="117.276" width="16.5794" height="21.3164" fill="#6B95FF"/>
<rect x="238.248" y="140.961" width="16.5794" height="21.3164" fill="#6B95FF"/>
<rect x="238.248" y="164.646" width="16.5794" height="21.3164" fill="#6B95FF"/>
<rect x="238.248" y="188.331" width="16.5794" height="21.3164" fill="#6B95FF"/>
<path d="M706.652 8.38849L703.55 439.391H718.769L717.138 8.32587L706.652 8.38849Z" fill="#7C715B"/>
<path d="M705.408 182.107L703.556 439.39L718.126 268.114L717.437 86.0996L705.408 182.107Z" fill="#65594A"/>
<path d="M681.028 29.1492L683.108 35.4014L670.679 35.4253L672.702 29.1219L681.028 29.1492Z" fill="#2A2A29"/>
<path d="M749.979 29.4227L752.059 35.6749L739.629 35.6988L741.653 29.3954L749.979 29.4227Z" fill="#2A2A29"/>
<path d="M664.699 35.2628L663.409 43.6434L759.413 43.6889L758.755 35.6601L664.699 35.2628Z" fill="#7C715B"/>
<path d="M745.84 35.6058L758.752 35.6601L759.41 43.6888L674.684 43.6489" fill="#65594A"/>
<path d="M681.028 68.4502L683.108 74.7024L670.679 74.7264L672.702 68.423L681.028 68.4502Z" fill="#2A2A29"/>
<path d="M749.979 68.7237L752.059 74.9759L739.629 74.9999L741.653 68.6965L749.979 68.7237Z" fill="#2A2A29"/>
<path d="M663.496 74.5638L662.207 82.9445L760.615 82.9899L759.957 74.9612L663.496 74.5638Z" fill="#7C715B"/>
<path d="M743.489 74.9994L759.954 74.9612L760.612 82.9899H674.684" fill="#65594A"/>
<path fill-rule="evenodd" clip-rule="evenodd" d="M716.339 144.73L716.359 111.593L738.551 111.402L738.811 144.606L735.364 148.752H720.231L716.339 144.73Z" fill="#E4E2DC"/>
<path fill-rule="evenodd" clip-rule="evenodd" d="M720.387 105.298L715.636 109.705V111.593L739.629 111.393L739.615 110.054L735.271 105.4L720.387 105.298Z" fill="#C2BEBA"/>
<path fill-rule="evenodd" clip-rule="evenodd" d="M716.353 119.526L738.762 139.685L738.81 144.605L735.364 148.751H720.23L716.338 144.73L716.353 119.526Z" fill="#C2BEBA"/>
</svg>
